<mxfile host="app.diagrams.net" modified="2022-09-20T13:03:54.951Z" agent="5.0 (Windows)" etag="yESnRwbrdSRDqAgNW-5j" version="20.3.3" type="github">
  <diagram id="S-bG89fc7_h-scHxdbOs" name="Forklarbarhetstre">
    <mxGraphModel dx="2062" dy="1112" grid="1" gridSize="10" guides="1" tooltips="1" connect="1" arrows="1" fold="1" page="1" pageScale="1" pageWidth="827" pageHeight="1169" background="none" math="0" shadow="0">
      <root>
        <mxCell id="0" />
        <object label="Leaf nodes" id="3XLRL7M_OkBcDrSNOy5R-58">
          <mxCell parent="0" />
        </object>
        <mxCell id="3XLRL7M_OkBcDrSNOy5R-59" value="Some kind of sensitivity analyis" style="rounded=1;whiteSpace=wrap;html=1;fillColor=#ffe6cc;strokeColor=#D70D0D;strokeWidth=6;" parent="3XLRL7M_OkBcDrSNOy5R-58" vertex="1">
          <mxGeometry x="834" y="555" width="120" height="60" as="geometry" />
        </mxCell>
        <mxCell id="3XLRL7M_OkBcDrSNOy5R-60" value="Higher order Accumulated Local Effects Plots (ALEPlots)" style="rounded=1;whiteSpace=wrap;html=1;fillColor=#ffe6cc;strokeColor=#d79b00;" parent="3XLRL7M_OkBcDrSNOy5R-58" vertex="1">
          <mxGeometry x="460" y="555" width="120" height="60" as="geometry" />
        </mxCell>
        <mxCell id="3XLRL7M_OkBcDrSNOy5R-61" value="Data Shapley" style="rounded=1;whiteSpace=wrap;html=1;fillColor=#ffe6cc;strokeColor=#d79b00;" parent="3XLRL7M_OkBcDrSNOy5R-58" vertex="1">
          <mxGeometry x="660" y="555" width="120" height="60" as="geometry" />
        </mxCell>
        <mxCell id="3XLRL7M_OkBcDrSNOy5R-62" value="Permutation feature importance" style="rounded=1;whiteSpace=wrap;html=1;fillColor=#ffe6cc;strokeColor=#d79b00;" parent="3XLRL7M_OkBcDrSNOy5R-58" vertex="1">
          <mxGeometry x="234" y="700" width="120" height="60" as="geometry" />
        </mxCell>
        <mxCell id="3XLRL7M_OkBcDrSNOy5R-63" value="SAGE (implemented as sage-importance in python)" style="rounded=1;whiteSpace=wrap;html=1;fillColor=#ffe6cc;strokeColor=#d79b00;" parent="3XLRL7M_OkBcDrSNOy5R-58" vertex="1">
          <mxGeometry x="60" y="700" width="120" height="60" as="geometry" />
        </mxCell>
        <mxCell id="3XLRL7M_OkBcDrSNOy5R-64" value="Influence functions/leverage scoring" style="rounded=1;whiteSpace=wrap;html=1;fillColor=#ffe6cc;strokeColor=#d79b00;" parent="3XLRL7M_OkBcDrSNOy5R-58" vertex="1">
          <mxGeometry x="2074" y="550" width="120" height="60" as="geometry" />
        </mxCell>
        <mxCell id="3XLRL7M_OkBcDrSNOy5R-65" value="Data Shapley (with single test observation error as local loss)" style="rounded=1;whiteSpace=wrap;html=1;fillColor=#ffe6cc;strokeColor=#d79b00;" parent="3XLRL7M_OkBcDrSNOy5R-58" vertex="1">
          <mxGeometry x="1900" y="550" width="120" height="60" as="geometry" />
        </mxCell>
        <mxCell id="3XLRL7M_OkBcDrSNOy5R-66" value="Individual conditional Expectation plots (ICE)" style="rounded=1;whiteSpace=wrap;html=1;fillColor=#ffe6cc;strokeColor=#d79b00;" parent="3XLRL7M_OkBcDrSNOy5R-58" vertex="1">
          <mxGeometry x="1764" y="740" width="120" height="60" as="geometry" />
        </mxCell>
        <mxCell id="3XLRL7M_OkBcDrSNOy5R-67" value="LIME" style="rounded=1;whiteSpace=wrap;html=1;fillColor=#ffe6cc;strokeColor=#d79b00;" parent="3XLRL7M_OkBcDrSNOy5R-58" vertex="1">
          <mxGeometry x="1590" y="740" width="120" height="60" as="geometry" />
        </mxCell>
        <mxCell id="3XLRL7M_OkBcDrSNOy5R-68" value="Counterfactual explanations" style="rounded=1;whiteSpace=wrap;html=1;fillColor=#ffe6cc;strokeColor=#d79b00;" parent="3XLRL7M_OkBcDrSNOy5R-58" vertex="1">
          <mxGeometry x="1434" y="750" width="120" height="60" as="geometry" />
        </mxCell>
        <mxCell id="3XLRL7M_OkBcDrSNOy5R-69" value="Anchors" style="rounded=1;whiteSpace=wrap;html=1;fillColor=#ffe6cc;strokeColor=#d79b00;" parent="3XLRL7M_OkBcDrSNOy5R-58" vertex="1">
          <mxGeometry x="1260" y="750" width="120" height="60" as="geometry" />
        </mxCell>
        <mxCell id="3XLRL7M_OkBcDrSNOy5R-70" value="PredDiff&amp;nbsp; (first order) " style="rounded=1;whiteSpace=wrap;html=1;fillColor=#ffe6cc;strokeColor=#d79b00;" parent="3XLRL7M_OkBcDrSNOy5R-58" vertex="1">
          <mxGeometry x="1170" y="640" width="120" height="60" as="geometry" />
        </mxCell>
        <mxCell id="3XLRL7M_OkBcDrSNOy5R-71" value="SHAP using the independence assumption (Implemented in the python package shap)&lt;br&gt;" style="rounded=1;whiteSpace=wrap;html=1;fillColor=#ffe6cc;strokeColor=#d79b00;" parent="3XLRL7M_OkBcDrSNOy5R-58" vertex="1">
          <mxGeometry x="1060" y="840" width="136" height="100" as="geometry" />
        </mxCell>
        <mxCell id="3XLRL7M_OkBcDrSNOy5R-72" value="SHAP (Shapley) with properly estimated conditional distributions using e.g. the shapr R-package&lt;br&gt;" style="rounded=1;whiteSpace=wrap;html=1;fillColor=#ffe6cc;strokeColor=#d79b00;" parent="3XLRL7M_OkBcDrSNOy5R-58" vertex="1">
          <mxGeometry x="870" y="840" width="150" height="100" as="geometry" />
        </mxCell>
        <object label="front" id="1">
          <mxCell parent="0" />
        </object>
        <mxCell id="3XLRL7M_OkBcDrSNOy5R-2" value="Do you want to explain the &lt;b&gt;&lt;u&gt;whole model&lt;/u&gt;&lt;/b&gt; or &lt;u&gt;&lt;b&gt;specific predictions?&lt;/b&gt;&lt;/u&gt;" style="rounded=1;whiteSpace=wrap;html=1;fillColor=#dae8fc;strokeColor=#6c8ebf;" parent="1" vertex="1">
          <mxGeometry x="1110" y="40" width="240" height="100" as="geometry" />
        </mxCell>
        <mxCell id="3XLRL7M_OkBcDrSNOy5R-3" value="" style="endArrow=classic;html=1;exitX=0.5;exitY=1;exitDx=0;exitDy=0;rounded=1;edgeStyle=orthogonalEdgeStyle;" parent="1" source="3XLRL7M_OkBcDrSNOy5R-2" target="3XLRL7M_OkBcDrSNOy5R-4" edge="1">
          <mxGeometry width="50" height="50" relative="1" as="geometry">
            <mxPoint x="930" y="400" as="sourcePoint" />
            <mxPoint x="1100" y="240" as="targetPoint" />
          </mxGeometry>
        </mxCell>
        <mxCell id="3XLRL7M_OkBcDrSNOy5R-4" value="Are you interested in how the &lt;u&gt;&lt;b&gt;training observations&lt;/b&gt;&lt;/u&gt; or how the &lt;u&gt;&lt;b&gt;features&lt;/b&gt;&lt;/u&gt; impact the model/prediction?" style="rounded=1;whiteSpace=wrap;html=1;fillColor=#dae8fc;strokeColor=#6c8ebf;" parent="1" vertex="1">
          <mxGeometry x="520" y="200" width="170" height="80" as="geometry" />
        </mxCell>
        <mxCell id="3XLRL7M_OkBcDrSNOy5R-5" value="Are you interested in how the &lt;u&gt;&lt;b&gt;training observations&lt;/b&gt;&lt;/u&gt; or how the &lt;u&gt;&lt;b&gt;features&lt;/b&gt;&lt;/u&gt; impact the model/prediction?" style="rounded=1;whiteSpace=wrap;html=1;fillColor=#dae8fc;strokeColor=#6c8ebf;" parent="1" vertex="1">
          <mxGeometry x="1730" y="200" width="230" height="60" as="geometry" />
        </mxCell>
        <mxCell id="3XLRL7M_OkBcDrSNOy5R-6" value="" style="endArrow=classic;html=1;rounded=1;exitX=0.5;exitY=1;exitDx=0;exitDy=0;entryX=0.5;entryY=0;entryDx=0;entryDy=0;edgeStyle=orthogonalEdgeStyle;" parent="1" source="3XLRL7M_OkBcDrSNOy5R-2" target="3XLRL7M_OkBcDrSNOy5R-5" edge="1">
          <mxGeometry width="50" height="50" relative="1" as="geometry">
            <mxPoint x="930" y="400" as="sourcePoint" />
            <mxPoint x="980" y="350" as="targetPoint" />
          </mxGeometry>
        </mxCell>
        <mxCell id="3XLRL7M_OkBcDrSNOy5R-7" value="Are you interested in the effect of recording/using/&lt;u&gt;&lt;b&gt;observing the features&lt;/b&gt;&lt;/u&gt;, or the effect of &lt;u&gt;&lt;b&gt;changing the observed values&lt;/b&gt;&lt;/u&gt; of the features?" style="rounded=1;whiteSpace=wrap;html=1;fillColor=#dae8fc;strokeColor=#6c8ebf;" parent="1" vertex="1">
          <mxGeometry x="250" y="320" width="300" height="90" as="geometry" />
        </mxCell>
        <mxCell id="3XLRL7M_OkBcDrSNOy5R-8" value="Do you want to &lt;u&gt;&lt;b&gt;obey or ignore the data distribution&lt;/b&gt;&lt;/u&gt; in the explanation? **" style="rounded=1;whiteSpace=wrap;html=1;fillColor=#dae8fc;strokeColor=#6c8ebf;" parent="1" vertex="1">
          <mxGeometry x="860" y="660" width="270" height="60" as="geometry" />
        </mxCell>
        <mxCell id="3XLRL7M_OkBcDrSNOy5R-10" value="Are you interested in the effect of recording/using/&lt;u&gt;&lt;b&gt;observing the &lt;br&gt;features&lt;/b&gt;&lt;/u&gt;, or the effect of &lt;u&gt;&lt;b&gt;changing the observed values&lt;/b&gt;&lt;/u&gt; of the features?" style="rounded=1;whiteSpace=wrap;html=1;fillColor=#dae8fc;strokeColor=#6c8ebf;" parent="1" vertex="1">
          <mxGeometry x="1860" y="320" width="320" height="60" as="geometry" />
        </mxCell>
        <mxCell id="3XLRL7M_OkBcDrSNOy5R-11" value="Are you interested in the effect of recording/using/&lt;u&gt;&lt;b&gt;observing the &lt;br&gt;features&lt;/b&gt;&lt;/u&gt;, the effect of &lt;u&gt;&lt;b&gt;changing the observed values&lt;/b&gt;&lt;/u&gt; of the features or how the instance &lt;u&gt;&lt;b&gt;relates to nearby model behaviour&lt;/b&gt;&lt;/u&gt;?" style="rounded=1;whiteSpace=wrap;html=1;fillColor=#dae8fc;strokeColor=#6c8ebf;" parent="1" vertex="1">
          <mxGeometry x="1340" y="320" width="390" height="60" as="geometry" />
        </mxCell>
        <mxCell id="3XLRL7M_OkBcDrSNOy5R-12" value="Are you interested in the effect of recording/using/&lt;u&gt;&lt;b&gt;observing the &lt;br&gt;features&lt;/b&gt;&lt;/u&gt;, or the effect of &lt;u&gt;&lt;b&gt;changing the observed values&lt;/b&gt;&lt;/u&gt; of the features?" style="rounded=1;whiteSpace=wrap;html=1;fillColor=#dae8fc;strokeColor=#6c8ebf;" parent="1" vertex="1">
          <mxGeometry x="610" y="320" width="350" height="90" as="geometry" />
        </mxCell>
        <mxCell id="3XLRL7M_OkBcDrSNOy5R-13" value="" style="endArrow=classic;html=1;exitX=0.5;exitY=1;exitDx=0;exitDy=0;rounded=1;edgeStyle=orthogonalEdgeStyle;entryX=0.5;entryY=0;entryDx=0;entryDy=0;" parent="1" source="3XLRL7M_OkBcDrSNOy5R-4" target="3XLRL7M_OkBcDrSNOy5R-7" edge="1">
          <mxGeometry width="50" height="50" relative="1" as="geometry">
            <mxPoint x="709.91" y="270" as="sourcePoint" />
            <mxPoint x="390" y="330" as="targetPoint" />
          </mxGeometry>
        </mxCell>
        <mxCell id="3XLRL7M_OkBcDrSNOy5R-14" value="" style="endArrow=classic;html=1;rounded=1;exitX=0.5;exitY=1;exitDx=0;exitDy=0;entryX=0.5;entryY=0;entryDx=0;entryDy=0;edgeStyle=orthogonalEdgeStyle;" parent="1" source="3XLRL7M_OkBcDrSNOy5R-4" target="3XLRL7M_OkBcDrSNOy5R-12" edge="1">
          <mxGeometry width="50" height="50" relative="1" as="geometry">
            <mxPoint x="640" y="500" as="sourcePoint" />
            <mxPoint x="690" y="450" as="targetPoint" />
          </mxGeometry>
        </mxCell>
        <mxCell id="3XLRL7M_OkBcDrSNOy5R-15" value="" style="endArrow=classic;html=1;exitX=0.5;exitY=1;exitDx=0;exitDy=0;rounded=1;edgeStyle=orthogonalEdgeStyle;entryX=0.408;entryY=-0.058;entryDx=0;entryDy=0;entryPerimeter=0;" parent="1" source="3XLRL7M_OkBcDrSNOy5R-5" target="3XLRL7M_OkBcDrSNOy5R-11" edge="1">
          <mxGeometry width="50" height="50" relative="1" as="geometry">
            <mxPoint x="1360" y="260" as="sourcePoint" />
            <mxPoint x="1160" y="320" as="targetPoint" />
            <Array as="points">
              <mxPoint x="1845" y="280" />
              <mxPoint x="1499" y="280" />
            </Array>
          </mxGeometry>
        </mxCell>
        <mxCell id="3XLRL7M_OkBcDrSNOy5R-16" value="" style="endArrow=classic;html=1;rounded=1;exitX=0.5;exitY=1;exitDx=0;exitDy=0;entryX=0.5;entryY=0;entryDx=0;entryDy=0;edgeStyle=orthogonalEdgeStyle;" parent="1" source="3XLRL7M_OkBcDrSNOy5R-5" target="3XLRL7M_OkBcDrSNOy5R-10" edge="1">
          <mxGeometry width="50" height="50" relative="1" as="geometry">
            <mxPoint x="1360" y="260" as="sourcePoint" />
            <mxPoint x="1560" y="320" as="targetPoint" />
            <Array as="points">
              <mxPoint x="1845" y="280" />
              <mxPoint x="2020" y="280" />
            </Array>
          </mxGeometry>
        </mxCell>
        <mxCell id="3XLRL7M_OkBcDrSNOy5R-17" value="Do you want to explore &lt;u&gt;&lt;b&gt;one feature at a time&lt;/b&gt;&lt;/u&gt; or &lt;u&gt;&lt;b&gt;consider joint interactions&lt;/b&gt;&lt;/u&gt; among features? " style="rounded=1;whiteSpace=wrap;html=1;fillColor=#dae8fc;strokeColor=#6c8ebf;" parent="1" vertex="1">
          <mxGeometry x="40" y="480" width="280" height="60" as="geometry" />
        </mxCell>
        <mxCell id="3XLRL7M_OkBcDrSNOy5R-19" value="" style="endArrow=classic;html=1;rounded=1;edgeStyle=orthogonalEdgeStyle;entryX=0.5;entryY=0;entryDx=0;entryDy=0;exitX=0.5;exitY=1;exitDx=0;exitDy=0;" parent="1" source="3XLRL7M_OkBcDrSNOy5R-7" target="3XLRL7M_OkBcDrSNOy5R-17" edge="1">
          <mxGeometry width="50" height="50" relative="1" as="geometry">
            <mxPoint x="410" y="420" as="sourcePoint" />
            <mxPoint x="170" y="490" as="targetPoint" />
            <Array as="points">
              <mxPoint x="400" y="440" />
              <mxPoint x="180" y="440" />
            </Array>
          </mxGeometry>
        </mxCell>
        <mxCell id="3XLRL7M_OkBcDrSNOy5R-20" value="" style="endArrow=classic;html=1;rounded=1;entryX=0.5;entryY=0;entryDx=0;entryDy=0;edgeStyle=orthogonalEdgeStyle;exitX=0.5;exitY=1;exitDx=0;exitDy=0;" parent="1" source="3XLRL7M_OkBcDrSNOy5R-7" edge="1">
          <mxGeometry width="50" height="50" relative="1" as="geometry">
            <mxPoint x="440" y="410" as="sourcePoint" />
            <mxPoint x="520" y="555" as="targetPoint" />
            <Array as="points">
              <mxPoint x="400" y="440" />
              <mxPoint x="520" y="440" />
            </Array>
          </mxGeometry>
        </mxCell>
        <mxCell id="3XLRL7M_OkBcDrSNOy5R-21" value="" style="endArrow=classic;html=1;rounded=1;entryX=0.5;entryY=0;entryDx=0;entryDy=0;edgeStyle=orthogonalEdgeStyle;exitX=0.5;exitY=1;exitDx=0;exitDy=0;" parent="1" source="3XLRL7M_OkBcDrSNOy5R-12" edge="1">
          <mxGeometry width="50" height="50" relative="1" as="geometry">
            <mxPoint x="780" y="410" as="sourcePoint" />
            <mxPoint x="894.0000000000005" y="555" as="targetPoint" />
            <Array as="points">
              <mxPoint x="785" y="440" />
              <mxPoint x="894" y="440" />
            </Array>
          </mxGeometry>
        </mxCell>
        <mxCell id="3XLRL7M_OkBcDrSNOy5R-23" value="" style="endArrow=classic;html=1;rounded=1;edgeStyle=orthogonalEdgeStyle;entryX=0.5;entryY=0;entryDx=0;entryDy=0;exitX=0.5;exitY=1;exitDx=0;exitDy=0;" parent="1" source="3XLRL7M_OkBcDrSNOy5R-12" edge="1">
          <mxGeometry width="50" height="50" relative="1" as="geometry">
            <mxPoint x="780" y="410" as="sourcePoint" />
            <mxPoint x="720" y="555" as="targetPoint" />
            <Array as="points">
              <mxPoint x="785" y="440" />
              <mxPoint x="720" y="440" />
            </Array>
          </mxGeometry>
        </mxCell>
        <mxCell id="3XLRL7M_OkBcDrSNOy5R-25" value="" style="endArrow=classic;html=1;rounded=1;entryX=0.5;entryY=0;entryDx=0;entryDy=0;edgeStyle=orthogonalEdgeStyle;exitX=0.5;exitY=1;exitDx=0;exitDy=0;" parent="1" source="3XLRL7M_OkBcDrSNOy5R-17" edge="1">
          <mxGeometry width="50" height="50" relative="1" as="geometry">
            <mxPoint x="185" y="555" as="sourcePoint" />
            <mxPoint x="294" y="700" as="targetPoint" />
            <Array as="points">
              <mxPoint x="180" y="585" />
              <mxPoint x="294" y="585" />
            </Array>
          </mxGeometry>
        </mxCell>
        <mxCell id="3XLRL7M_OkBcDrSNOy5R-27" value="" style="endArrow=classic;html=1;rounded=1;edgeStyle=orthogonalEdgeStyle;entryX=0.5;entryY=0;entryDx=0;entryDy=0;exitX=0.5;exitY=1;exitDx=0;exitDy=0;" parent="1" source="3XLRL7M_OkBcDrSNOy5R-17" edge="1">
          <mxGeometry width="50" height="50" relative="1" as="geometry">
            <mxPoint x="185" y="555" as="sourcePoint" />
            <mxPoint x="120" y="700" as="targetPoint" />
            <Array as="points">
              <mxPoint x="180" y="585" />
              <mxPoint x="120" y="585" />
            </Array>
          </mxGeometry>
        </mxCell>
        <mxCell id="3XLRL7M_OkBcDrSNOy5R-29" value="" style="endArrow=classic;html=1;rounded=1;entryX=0.5;entryY=0;entryDx=0;entryDy=0;edgeStyle=orthogonalEdgeStyle;exitX=0.5;exitY=1;exitDx=0;exitDy=0;" parent="1" source="3XLRL7M_OkBcDrSNOy5R-10" edge="1">
          <mxGeometry width="50" height="50" relative="1" as="geometry">
            <mxPoint x="2020" y="390" as="sourcePoint" />
            <mxPoint x="2134" y="550" as="targetPoint" />
            <Array as="points">
              <mxPoint x="2020" y="435" />
              <mxPoint x="2134" y="435" />
            </Array>
          </mxGeometry>
        </mxCell>
        <mxCell id="3XLRL7M_OkBcDrSNOy5R-31" value="" style="endArrow=classic;html=1;rounded=1;edgeStyle=orthogonalEdgeStyle;entryX=0.5;entryY=0;entryDx=0;entryDy=0;exitX=0.5;exitY=1;exitDx=0;exitDy=0;" parent="1" source="3XLRL7M_OkBcDrSNOy5R-10" edge="1">
          <mxGeometry width="50" height="50" relative="1" as="geometry">
            <mxPoint x="2020" y="390" as="sourcePoint" />
            <mxPoint x="1960" y="550" as="targetPoint" />
            <Array as="points">
              <mxPoint x="2020" y="435" />
              <mxPoint x="1960" y="435" />
            </Array>
          </mxGeometry>
        </mxCell>
        <mxCell id="3XLRL7M_OkBcDrSNOy5R-32" value="Do you want to explain the model in terms of &lt;u&gt;&lt;b&gt;one feature at a time&lt;/b&gt;&lt;/u&gt;, or &lt;u&gt;&lt;b&gt;consider joint interactions &lt;/b&gt;&lt;/u&gt;among features?" style="rounded=1;whiteSpace=wrap;html=1;fillColor=#dae8fc;strokeColor=#6c8ebf;" parent="1" vertex="1">
          <mxGeometry x="1570" y="500" width="270" height="60" as="geometry" />
        </mxCell>
        <mxCell id="3XLRL7M_OkBcDrSNOy5R-33" value="Do you want to explore &lt;u&gt;&lt;b&gt;one feature at a time&lt;/b&gt;&lt;/u&gt; or &lt;u&gt;&lt;b&gt;consider joint interactions&lt;/b&gt;&lt;/u&gt; among features? " style="rounded=1;whiteSpace=wrap;html=1;fillColor=#dae8fc;strokeColor=#6c8ebf;" parent="1" vertex="1">
          <mxGeometry x="1000" y="500" width="210" height="60" as="geometry" />
        </mxCell>
        <mxCell id="3XLRL7M_OkBcDrSNOy5R-34" value="" style="endArrow=classic;html=1;rounded=1;edgeStyle=orthogonalEdgeStyle;entryX=0.408;entryY=-0.058;entryDx=0;entryDy=0;entryPerimeter=0;exitX=0.5;exitY=1;exitDx=0;exitDy=0;" parent="1" source="3XLRL7M_OkBcDrSNOy5R-11" target="3XLRL7M_OkBcDrSNOy5R-33" edge="1">
          <mxGeometry width="50" height="50" relative="1" as="geometry">
            <mxPoint x="1540" y="380" as="sourcePoint" />
            <mxPoint x="820" y="460" as="targetPoint" />
            <Array as="points">
              <mxPoint x="1535" y="420" />
              <mxPoint x="1086" y="420" />
            </Array>
          </mxGeometry>
        </mxCell>
        <mxCell id="3XLRL7M_OkBcDrSNOy5R-35" value="" style="endArrow=classic;html=1;rounded=1;exitX=0.5;exitY=1;exitDx=0;exitDy=0;entryX=0.5;entryY=0;entryDx=0;entryDy=0;edgeStyle=orthogonalEdgeStyle;" parent="1" source="3XLRL7M_OkBcDrSNOy5R-11" target="3XLRL7M_OkBcDrSNOy5R-32" edge="1">
          <mxGeometry width="50" height="50" relative="1" as="geometry">
            <mxPoint x="1505" y="400" as="sourcePoint" />
            <mxPoint x="1220" y="460" as="targetPoint" />
            <Array as="points">
              <mxPoint x="1535" y="420" />
              <mxPoint x="1705" y="420" />
            </Array>
          </mxGeometry>
        </mxCell>
        <mxCell id="3XLRL7M_OkBcDrSNOy5R-36" value="Do you want to compare the prediction with &lt;u&gt;&lt;b&gt;nearby predictions with a similar outcome&lt;/b&gt;&lt;/u&gt; or a &lt;u&gt;&lt;b&gt;different outcome&lt;/b&gt;&lt;/u&gt;?" style="rounded=1;whiteSpace=wrap;html=1;fillColor=#dae8fc;strokeColor=#6c8ebf;" parent="1" vertex="1">
          <mxGeometry x="1270" y="500" width="210" height="60" as="geometry" />
        </mxCell>
        <mxCell id="3XLRL7M_OkBcDrSNOy5R-37" value="" style="endArrow=classic;html=1;rounded=1;edgeStyle=orthogonalEdgeStyle;entryX=0.5;entryY=0;entryDx=0;entryDy=0;exitX=0.5;exitY=1;exitDx=0;exitDy=0;" parent="1" source="3XLRL7M_OkBcDrSNOy5R-11" target="3XLRL7M_OkBcDrSNOy5R-36" edge="1">
          <mxGeometry width="50" height="50" relative="1" as="geometry">
            <mxPoint x="1545" y="390" as="sourcePoint" />
            <mxPoint x="1095.6799999999998" y="466.52" as="targetPoint" />
            <Array as="points">
              <mxPoint x="1535" y="420" />
              <mxPoint x="1375" y="420" />
            </Array>
          </mxGeometry>
        </mxCell>
        <mxCell id="3XLRL7M_OkBcDrSNOy5R-39" value="" style="endArrow=classic;html=1;rounded=1;entryX=0.5;entryY=0;entryDx=0;entryDy=0;edgeStyle=orthogonalEdgeStyle;exitX=0.5;exitY=1;exitDx=0;exitDy=0;" parent="1" source="3XLRL7M_OkBcDrSNOy5R-32" edge="1">
          <mxGeometry width="50" height="50" relative="1" as="geometry">
            <mxPoint x="1710" y="560" as="sourcePoint" />
            <mxPoint x="1824" y="740" as="targetPoint" />
            <Array as="points">
              <mxPoint x="1705" y="625" />
              <mxPoint x="1824" y="625" />
            </Array>
          </mxGeometry>
        </mxCell>
        <mxCell id="3XLRL7M_OkBcDrSNOy5R-41" value="" style="endArrow=classic;html=1;rounded=1;edgeStyle=orthogonalEdgeStyle;entryX=0.5;entryY=0;entryDx=0;entryDy=0;" parent="1" edge="1">
          <mxGeometry width="50" height="50" relative="1" as="geometry">
            <mxPoint x="1705" y="560" as="sourcePoint" />
            <mxPoint x="1650" y="740" as="targetPoint" />
            <Array as="points">
              <mxPoint x="1705" y="625" />
              <mxPoint x="1650" y="625" />
            </Array>
          </mxGeometry>
        </mxCell>
        <mxCell id="3XLRL7M_OkBcDrSNOy5R-43" value="" style="endArrow=classic;html=1;rounded=1;entryX=0.5;entryY=0;entryDx=0;entryDy=0;edgeStyle=orthogonalEdgeStyle;exitX=0.5;exitY=1;exitDx=0;exitDy=0;" parent="1" source="3XLRL7M_OkBcDrSNOy5R-36" edge="1">
          <mxGeometry width="50" height="50" relative="1" as="geometry">
            <mxPoint x="1375" y="570" as="sourcePoint" />
            <mxPoint x="1494" y="750" as="targetPoint" />
            <Array as="points">
              <mxPoint x="1375" y="635" />
              <mxPoint x="1494" y="635" />
            </Array>
          </mxGeometry>
        </mxCell>
        <mxCell id="3XLRL7M_OkBcDrSNOy5R-45" value="" style="endArrow=classic;html=1;rounded=1;edgeStyle=orthogonalEdgeStyle;entryX=0.5;entryY=0;entryDx=0;entryDy=0;exitX=0.5;exitY=1;exitDx=0;exitDy=0;" parent="1" source="3XLRL7M_OkBcDrSNOy5R-36" edge="1">
          <mxGeometry width="50" height="50" relative="1" as="geometry">
            <mxPoint x="1375" y="570" as="sourcePoint" />
            <mxPoint x="1320" y="750" as="targetPoint" />
            <Array as="points">
              <mxPoint x="1375" y="635" />
              <mxPoint x="1320" y="635" />
            </Array>
          </mxGeometry>
        </mxCell>
        <mxCell id="3XLRL7M_OkBcDrSNOy5R-46" value="" style="endArrow=classic;html=1;rounded=1;edgeStyle=orthogonalEdgeStyle;exitX=0.5;exitY=1;exitDx=0;exitDy=0;" parent="1" source="3XLRL7M_OkBcDrSNOy5R-33" edge="1">
          <mxGeometry width="50" height="50" relative="1" as="geometry">
            <mxPoint x="1110" y="570" as="sourcePoint" />
            <mxPoint x="1229" y="640" as="targetPoint" />
            <Array as="points">
              <mxPoint x="1105" y="600" />
              <mxPoint x="1229" y="600" />
            </Array>
          </mxGeometry>
        </mxCell>
        <mxCell id="3XLRL7M_OkBcDrSNOy5R-47" value="" style="endArrow=classic;html=1;rounded=1;edgeStyle=orthogonalEdgeStyle;exitX=0.5;exitY=1;exitDx=0;exitDy=0;" parent="1" source="3XLRL7M_OkBcDrSNOy5R-33" target="3XLRL7M_OkBcDrSNOy5R-8" edge="1">
          <mxGeometry width="50" height="50" relative="1" as="geometry">
            <mxPoint x="1110" y="570" as="sourcePoint" />
            <mxPoint x="1030" y="765" as="targetPoint" />
            <Array as="points">
              <mxPoint x="1105" y="600" />
              <mxPoint x="1014" y="600" />
            </Array>
          </mxGeometry>
        </mxCell>
        <mxCell id="3XLRL7M_OkBcDrSNOy5R-50" value="" style="endArrow=classic;html=1;rounded=1;edgeStyle=orthogonalEdgeStyle;" parent="1" source="3XLRL7M_OkBcDrSNOy5R-8" edge="1">
          <mxGeometry width="50" height="50" relative="1" as="geometry">
            <mxPoint x="1015" y="720" as="sourcePoint" />
            <mxPoint x="1134.0000000000005" y="840" as="targetPoint" />
            <Array as="points">
              <mxPoint x="1015" y="795" />
              <mxPoint x="1134" y="795" />
            </Array>
          </mxGeometry>
        </mxCell>
        <mxCell id="3XLRL7M_OkBcDrSNOy5R-52" value="" style="endArrow=classic;html=1;rounded=1;edgeStyle=orthogonalEdgeStyle;" parent="1" source="3XLRL7M_OkBcDrSNOy5R-8" edge="1">
          <mxGeometry width="50" height="50" relative="1" as="geometry">
            <mxPoint x="1015" y="720" as="sourcePoint" />
            <mxPoint x="960" y="840" as="targetPoint" />
            <Array as="points">
              <mxPoint x="1015" y="795" />
              <mxPoint x="960" y="795" />
            </Array>
          </mxGeometry>
        </mxCell>
        <UserObject label="HIDE LEAF NODES" link="data:action/json,{&quot;actions&quot;:[{&quot;toggle&quot;:{&quot;cells&quot;:[&quot;3XLRL7M_OkBcDrSNOy5R-58&quot;]}}]}" id="3XLRL7M_OkBcDrSNOy5R-54">
          <mxCell style="rounded=0;whiteSpace=wrap;html=1;fillColor=#f8cecc;strokeColor=#b85450;" parent="1" vertex="1">
            <mxGeometry x="2270" y="210" width="120" height="60" as="geometry" />
          </mxCell>
        </UserObject>
        <object label="Background" id="3XLRL7M_OkBcDrSNOy5R-57">
          <mxCell parent="0" />
        </object>
        <UserObject label="HIDE LEAF NODES" link="data:action/json,{&quot;actions&quot;:[{&quot;toggle&quot;:{&quot;cells&quot;:[&quot;3XLRL7M_OkBcDrSNOy5R-58&quot;]}}]}" id="3XLRL7M_OkBcDrSNOy5R-56">
          <mxCell style="rounded=0;whiteSpace=wrap;html=1;fillColor=#f8cecc;strokeColor=#b85450;" parent="3XLRL7M_OkBcDrSNOy5R-57" vertex="1">
            <mxGeometry x="2270" y="210" width="120" height="60" as="geometry" />
          </mxCell>
        </UserObject>
      </root>
    </mxGraphModel>
  </diagram>
</mxfile>
